<svg width="4067" height="5823" viewBox="0 0 4067 5823" fill="none" xmlns="http://www.w3.org/2000/svg">
<path d="M0 250C0 111.929 111.929 0 250 0H3817C3955.07 0 4067 111.929 4067 250V3200H250C111.929 3200 0 3088.07 0 2950V250Z" fill="#261FB3"/>
<path d="M567 4117C567 3978.93 678.929 3867 817 3867H4067V4323C4067 5151.43 3395.43 5823 2567 5823H817C678.929 5823 567 5711.07 567 5573V4117Z" fill="#261FB3"/>
<rect x="1633" y="2978" width="2434" height="1022" fill="#261FB3"/>
<path d="M1633.5 3745L1869.49 3936.25H1397.51L1633.5 3745Z" fill="#261FB3"/>
</svg>
