<svg width="252" height="223" viewBox="0 0 252 223" fill="none" xmlns="http://www.w3.org/2000/svg">
<g clip-path="url(#clip0_9_3)">
<rect width="252" height="223" fill="#261FB3"/>
<path d="M116.367 175H93.5156V111.982C93.5156 108.994 92.7539 106.738 91.2305 105.215C89.707 103.633 87.4219 102.842 84.375 102.842H43.1543V79.9902H84.375C86.543 79.9902 88.8281 80.2539 91.2305 80.7812C93.6328 81.25 96.0059 82.0117 98.3496 83.0664C100.752 84.1211 103.037 85.498 105.205 87.1973C107.373 88.8379 109.277 90.8594 110.918 93.2617C112.559 95.6055 113.877 98.3301 114.873 101.436C115.869 104.541 116.367 108.057 116.367 111.982V175ZM33.9258 175H11.0742V39.8242H33.9258V175ZM248.906 175H215.947L169.893 130.527C167.314 128.184 166.113 125.254 166.289 121.738C166.406 120.098 166.816 118.574 167.52 117.168C168.281 115.703 169.307 114.473 170.596 113.477L212.344 79.8145H248.906L195.117 123.145L248.906 175ZM160.488 175H137.637V39.8242H160.488V175Z" fill="white"/>
</g>
<defs>
<clipPath id="clip0_9_3">
<rect width="252" height="223" fill="white"/>
</clipPath>
</defs>
</svg>
