<svg width="4615" height="11497" viewBox="0 0 4615 11497" fill="none" xmlns="http://www.w3.org/2000/svg">
<path d="M650 10900C560 10900 515 10855 515 10765V10065C515 9978.33 560 9935 650 9935H1015C1115 9935 1165 9893.33 1165 9810V9660H525C441.667 9660 400 9615 400 9525L410 8260C410 8170 453.333 8125 540 8125H2125C2208.33 8125 2250 8170 2250 8260V9790C2250 10163.3 2161.67 10441.7 1985 10625C1808.33 10808.3 1571.67 10900 1275 10900H650Z" fill="#261FB3"/>
<path d="M2618 11497C2528 11497 2483 11452 2483 11362V10662C2483 10575.3 2528 10532 2618 10532H2983C3083 10532 3133 10490.3 3133 10407V10257H2493C2409.67 10257 2368 10212 2368 10122L2378 8857.01C2378 8767.01 2421.33 8722.01 2508 8722.01H4093C4176.33 8722.01 4218 8767.01 4218 8857.01V10387C4218 10760.3 4129.67 11038.7 3953 11222C3776.33 11405.3 3539.67 11497 3243 11497H2618Z" fill="#261FB3"/>
</svg>
