<svg width="3873" height="13290" viewBox="0 0 3873 13290" fill="none" xmlns="http://www.w3.org/2000/svg">
<path d="M390 10835C306.667 10835 265 10793.3 265 10710V10040C265 9956.67 306.667 9915 390 9915H740C836.667 9915 885 9873.33 885 9790V9650H275C191.667 9650 150 9608.33 150 9525L160 8315C160 8231.67 201.667 8190 285 8190H1790C1873.33 8190 1915 8231.67 1915 8315V9775C1915 10131.7 1830 10396.7 1660 10570C1493.33 10746.7 1268.33 10835 985 10835H390Z" fill="#4D55CC"/>
<path d="M2202 11625C2118.67 11625 2077 11583.3 2077 11500V10830C2077 10746.7 2118.67 10705 2202 10705H2552C2648.67 10705 2697 10663.3 2697 10580V10440H2087C2003.67 10440 1962 10398.3 1962 10315L1972 9105C1972 9021.67 2013.67 8980 2097 8980H3602C3685.33 8980 3727 9021.67 3727 9105V10565C3727 10921.7 3642 11186.7 3472 11360C3305.33 11536.7 3080.33 11625 2797 11625H2202Z" fill="#4D55CC"/>
</svg>
